<?xml version="1.0" encoding="UTF-8" standalone="no"?>
<svg
   xmlns:dc="http://purl.org/dc/elements/1.1/"
   xmlns:cc="http://creativecommons.org/ns#"
   xmlns:rdf="http://www.w3.org/1999/02/22-rdf-syntax-ns#"
   xmlns:svg="http://www.w3.org/2000/svg"
   xmlns="http://www.w3.org/2000/svg"
   xmlns:sodipodi="http://sodipodi.sourceforge.net/DTD/sodipodi-0.dtd"
   xmlns:inkscape="http://www.inkscape.org/namespaces/inkscape"
   viewBox="0 0 64 64"
   version="1.1"
   id="svg28"
   sodipodi:docname="excelAsset_W.svg"
   inkscape:version="1.0.2 (e86c870879, 2021-01-15, custom)"
   inkscape:export-filename="C:\Users\andmra2\Desktop\Desktop\Python\GUItemplate\icons\1x\excelAsset.png"
   inkscape:export-xdpi="192"
   inkscape:export-ydpi="192"
   width="64"
   height="64">
  <metadata
     id="metadata34">
    <rdf:RDF>
      <cc:Work
         rdf:about="">
        <dc:format>image/svg+xml</dc:format>
        <dc:type
           rdf:resource="http://purl.org/dc/dcmitype/StillImage" />
        <dc:title>Excel_64x</dc:title>
      </cc:Work>
    </rdf:RDF>
  </metadata>
  <defs
     id="defs32" />
  <sodipodi:namedview
     pagecolor="#ffffff"
     bordercolor="#666666"
     borderopacity="1"
     objecttolerance="10"
     gridtolerance="10"
     guidetolerance="10"
     inkscape:pageopacity="0"
     inkscape:pageshadow="2"
     inkscape:window-width="1920"
     inkscape:window-height="1017"
     id="namedview30"
     showgrid="false"
     inkscape:zoom="1.9880952"
     inkscape:cx="-36.352388"
     inkscape:cy="1.9185791"
     inkscape:window-x="1912"
     inkscape:window-y="-8"
     inkscape:window-maximized="1"
     inkscape:current-layer="svg28" />
  <title
     id="title2">Excel_64x</title>
  <path
     d="M 38,8 H 19.3335 A 2.33373,2.33373 0 0 0 17,10.3335 V 20 h 21 z"
     fill="#21a366"
     id="path4"
     style="fill:#e0e0e0;fill-opacity:1" />
  <path
     d="M 56.6665,8 H 38 V 20 H 59 V 10.3335 A 2.33373,2.33373 0 0 0 56.6665,8 Z"
     fill="#33c481"
     id="path6"
     style="fill:#ffffff;fill-opacity:1" />
  <rect
     x="38"
     y="32"
     width="21"
     height="12"
     fill="#107c41"
     id="rect8"
     style="fill:#c4c4c4;fill-opacity:1" />
  <path
     d="M 38,44 V 32 H 17 V 53.6665 A 2.33373,2.33373 0 0 0 19.3335,56 h 37.333 A 2.33373,2.33373 0 0 0 59,53.6665 V 44 Z"
     fill="#185c37"
     id="path10"
     style="fill:#bababa;fill-opacity:1" />
  <rect
     x="17"
     y="20"
     width="21"
     height="12"
     fill="#107c41"
     id="rect12"
     style="fill:#c4c4c4;fill-opacity:1" />
  <rect
     x="38"
     y="20"
     width="21"
     height="12"
     fill="#21a366"
     id="rect14"
     style="fill:#e0e0e0;fill-opacity:1" />
  <path
     d="M 33,20.33008 V 46.66992 A 1.73444,1.73444 0 0 1 32.96,47.06982 2.31378,2.31378 0 0 1 30.66992,49 H 17 V 18 H 30.66992 A 2.326,2.326 0 0 1 33,20.33008 Z"
     opacity="0.2"
     id="path16" />
  <path
     d="M 34,20.33008 V 44.66992 A 3.36171,3.36171 0 0 1 30.66992,48 H 17 V 17 H 30.66992 A 3.34177,3.34177 0 0 1 34,20.33008 Z"
     opacity="0.1"
     id="path18" />
  <path
     d="M 33,20.33008 V 44.66992 A 2.326,2.326 0 0 1 30.66992,47 H 17 V 18 H 30.66992 A 2.326,2.326 0 0 1 33,20.33008 Z"
     opacity="0.2"
     id="path20" />
  <path
     d="M 32,20.33008 V 44.66992 A 2.326,2.326 0 0 1 29.66992,47 H 17 V 18 H 29.66992 A 2.326,2.326 0 0 1 32,20.33008 Z"
     opacity="0.1"
     id="path22" />
  <rect
     x="4"
     y="18.000019"
     width="27.99996"
     height="27.99996"
     rx="2.3333299"
     fill="#107c41"
     id="rect24"
     style="fill:#c2c2c2;fill-opacity:1" />
  <path
     d="m 11.2256,39.5835 4.90759,-7.60465 -4.4951,-7.56235 h 3.61724 l 2.45379,4.83356 q 0.33839,0.68763 0.46538,1.02594 h 0.03173 q 0.24318,-0.54984 0.50768,-1.06825 l 2.623,-4.79125 H 24.658 l -4.61145,7.52 4.72779,7.647 h -3.5326 L 18.40718,34.274 a 4.43255,4.43255 0 0 1 -0.33845,-0.70864 h -0.04231 a 3.345,3.345 0 0 1 -0.32788,0.68749 l -2.91917,5.33065 z"
     fill="#fff"
     id="path26"
     style="fill:#505151;fill-opacity:1" />
</svg>
