<?xml version="1.0" encoding="UTF-8" standalone="no"?>
<svg
   xmlns:dc="http://purl.org/dc/elements/1.1/"
   xmlns:cc="http://creativecommons.org/ns#"
   xmlns:rdf="http://www.w3.org/1999/02/22-rdf-syntax-ns#"
   xmlns:svg="http://www.w3.org/2000/svg"
   xmlns="http://www.w3.org/2000/svg"
   xmlns:sodipodi="http://sodipodi.sourceforge.net/DTD/sodipodi-0.dtd"
   xmlns:inkscape="http://www.inkscape.org/namespaces/inkscape"
   width="128"
   height="128"
   viewBox="0 0 33.866666 33.866668"
   version="1.1"
   id="svg8"
   inkscape:version="1.0.2 (e86c870879, 2021-01-15, custom)"
   sodipodi:docname="infoAsset.svg"
   inkscape:export-filename="C:\Users\andmra2\Desktop\Desktop\Python\GUItemplate\icons\1x\infoAsset.png"
   inkscape:export-xdpi="96"
   inkscape:export-ydpi="96">
  <defs
     id="defs2" />
  <sodipodi:namedview
     id="base"
     pagecolor="#ffffff"
     bordercolor="#666666"
     borderopacity="1.0"
     inkscape:pageopacity="0.0"
     inkscape:pageshadow="2"
     inkscape:zoom="3.959798"
     inkscape:cx="85.230546"
     inkscape:cy="63.044952"
     inkscape:document-units="mm"
     inkscape:current-layer="layer1"
     inkscape:document-rotation="0"
     showgrid="false"
     units="px"
     inkscape:window-width="1920"
     inkscape:window-height="1017"
     inkscape:window-x="1912"
     inkscape:window-y="-8"
     inkscape:window-maximized="1" />
  <metadata
     id="metadata5">
    <rdf:RDF>
      <cc:Work
         rdf:about="">
        <dc:format>image/svg+xml</dc:format>
        <dc:type
           rdf:resource="http://purl.org/dc/dcmitype/StillImage" />
        <dc:title></dc:title>
      </cc:Work>
    </rdf:RDF>
  </metadata>
  <g
     inkscape:label="Plast 1"
     inkscape:groupmode="layer"
     id="layer1"
     style="display:inline">
    <path
       id="path833"
       style="fill:#ffffff;stroke:none;stroke-width:64.7339;stroke-linecap:round;stroke-linejoin:round;fill-opacity:1"
       d="M 63.703125 0 A 63.999996 63.999996 0 0 0 0 64 A 63.999996 63.999996 0 0 0 64 128 A 63.999996 63.999996 0 0 0 128 64 A 63.999996 63.999996 0 0 0 64 0 A 63.999996 63.999996 0 0 0 63.703125 0 z M 51 20 L 77 20 L 77 46 L 51 46 L 51 20 z M 51 55 L 77 55 L 77 105 L 51 105 L 51 55 z "
       transform="scale(0.26458333)" />
  </g>
</svg>
