<?xml version="1.0" encoding="UTF-8" standalone="no"?>
<svg
   xmlns:dc="http://purl.org/dc/elements/1.1/"
   xmlns:cc="http://creativecommons.org/ns#"
   xmlns:rdf="http://www.w3.org/1999/02/22-rdf-syntax-ns#"
   xmlns:svg="http://www.w3.org/2000/svg"
   xmlns="http://www.w3.org/2000/svg"
   xmlns:sodipodi="http://sodipodi.sourceforge.net/DTD/sodipodi-0.dtd"
   xmlns:inkscape="http://www.inkscape.org/namespaces/inkscape"
   viewBox="0 0 64 64"
   version="1.1"
   id="svg24"
   sodipodi:docname="wordAsset.svg"
   inkscape:version="1.0.2 (e86c870879, 2021-01-15, custom)">
  <metadata
     id="metadata30">
    <rdf:RDF>
      <cc:Work
         rdf:about="">
        <dc:format>image/svg+xml</dc:format>
        <dc:type
           rdf:resource="http://purl.org/dc/dcmitype/StillImage" />
        <dc:title>Word_64x</dc:title>
      </cc:Work>
    </rdf:RDF>
  </metadata>
  <defs
     id="defs28" />
  <sodipodi:namedview
     pagecolor="#ffffff"
     bordercolor="#666666"
     borderopacity="1"
     objecttolerance="10"
     gridtolerance="10"
     guidetolerance="10"
     inkscape:pageopacity="0"
     inkscape:pageshadow="2"
     inkscape:window-width="1920"
     inkscape:window-height="1017"
     id="namedview26"
     showgrid="false"
     inkscape:zoom="13.28125"
     inkscape:cx="32"
     inkscape:cy="32"
     inkscape:window-x="-8"
     inkscape:window-y="314"
     inkscape:window-maximized="1"
     inkscape:current-layer="svg24" />
  <title
     id="title2">Word_64x</title>
  <path
     d="M19.33333,56H56.66667A2.33333,2.33333,0,0,0,59,53.66667V44H17v9.66667A2.33333,2.33333,0,0,0,19.33333,56Z"
     fill="#103f91"
     id="path4"
     style="fill:#b6b7b9;fill-opacity:1" />
  <path
     d="M56.66667,8H19.33333A2.33333,2.33333,0,0,0,17,10.33333V20H59V10.33333A2.33333,2.33333,0,0,0,56.66667,8Z"
     fill="#41a5ee"
     id="path6"
     style="fill:#ffffff;fill-opacity:1" />
  <rect
     x="17"
     y="32"
     width="42"
     height="12"
     fill="#185abd"
     id="rect8"
     style="fill:#cfd1d3;fill-opacity:1" />
  <rect
     x="17"
     y="20"
     width="42"
     height="12"
     fill="#2b7cd3"
     id="rect10"
     style="fill:#e5e5e5;fill-opacity:1" />
  <path
     d="M33,20.33008V46.66992a1.73444,1.73444,0,0,1-.04.3999A2.31378,2.31378,0,0,1,30.66992,49H17V18H30.66992A2.326,2.326,0,0,1,33,20.33008Z"
     opacity="0.2"
     id="path12" />
  <path
     d="M34,20.33008V44.66992A3.36171,3.36171,0,0,1,30.66992,48H17V17H30.66992A3.34177,3.34177,0,0,1,34,20.33008Z"
     opacity="0.1"
     id="path14" />
  <path
     d="M33,20.33008V44.66992A2.326,2.326,0,0,1,30.66992,47H17V18H30.66992A2.326,2.326,0,0,1,33,20.33008Z"
     opacity="0.2"
     id="path16" />
  <path
     d="M32,20.33008V44.66992A2.326,2.326,0,0,1,29.66992,47H17V18H29.66992A2.326,2.326,0,0,1,32,20.33008Z"
     opacity="0.1"
     id="path18" />
  <rect
     x="4"
     y="18"
     width="28"
     height="28"
     rx="2.33333"
     fill="#185abd"
     id="rect20"
     style="fill:#d1d1d1;fill-opacity:1" />
  <path
     d="M13.574,35.89214q.06867.5394.0899.94131h.05288q.03172-.38076.12163-.92015.08968-.5394.17451-.90958l2.45374-10.58705h3.173l2.53835,10.4284a15.13086,15.13086,0,0,1,.3173,1.96723h.0423a15.01841,15.01841,0,0,1,.26441-1.90377l2.03069-10.49186H27.72L24.16631,39.58333h-3.3739l-2.422-10.04765q-.10584-.43356-.238-1.13168Q18,27.70595,17.96849,27.38866h-.0423q-.04239.37032-.16394,1.09995t-.19566,1.0788l-2.274,10.01592H11.86587L8.28044,24.41667H11.2207l2.21049,10.6082Q13.505,35.35281,13.574,35.89214Z"
     fill="#fff"
     id="path22"
     style="fill:#515050;fill-opacity:1" />
</svg>
